<svg id="Layer_1" data-name="Layer 1" xmlns="http://www.w3.org/2000/svg" viewBox="0 0 421.75 421.75"><defs><style>.cls-1{fill:#fff;}.cls-1,.cls-2,.cls-4{stroke:#000;}.cls-1,.cls-2,.cls-3,.cls-4{stroke-miterlimit:10;}.cls-3{stroke:#fff;stroke-width:0.75px;}.cls-4{fill:none;stroke-width:7px;}</style></defs><title>icon-female</title><circle class="cls-1" cx="211.97" cy="213.89" r="200.5"/><path class="cls-2" d="M209.49,268.93s-31.09,13.93-26.71,49.47c3,24.14-25.9,26.66-25.9,26.66s-39.89-1.83-5.79,50.66c32.81,50.5,93.78-40.35,93.78-40.35Z" transform="translate(-44.53 -44.61)"/><path class="cls-2" d="M310.39,261.3s31.1,13.93,26.71,49.47c-3,24.14,25.91,26.66,25.91,26.66s39.89-1.83,5.78,50.66C336,438.59,275,347.74,275,347.74Z" transform="translate(-44.53 -44.61)"/><path class="cls-3" d="M244.31,48.36a207.77,207.77,0,0,1,188,97.3c27.94,44.14,37.93,99.05,27.81,150.26A208.2,208.2,0,0,1,313,456c-49.44,14.18-104.12,9.21-150.06-14A208,208,0,0,1,244.31,48.36ZM238,66.18A189.48,189.48,0,0,0,148,99,190.64,190.64,0,0,0,69.34,295.13C75.7,325.72,99.12,376.52,127,396c18.94-26,24.42-12.82,51.34-21.49,4-1.41,23.19-5.93,27-7.66,1.28-1.6,19.38-6.76,18.93-14,12.62-28.39-21.22-32.19-25.23-41a120.32,120.32,0,0,1-8-25c-.6-2.63-.55-5.57-2.27-7.79-6.2-8.26-9.44-18.29-11.75-28.24-1.59-7.45-3.11-15.1-2.34-22.76.34-4.84,3.31-9.14,2.93-14.08a223.47,223.47,0,0,0-3.25-33.86c-1.43-8.39-.39-17,1.72-25.18,4.06-15.6,13.26-30,26.32-39.54,15.28-11.31,34.73-15.89,53.53-15.25,14.82-.52,29.89,2.1,43.27,8.62,25.27,11.89,41.05,40.22,39.3,67.87-2,12.68-3.71,25.48-3.71,38.35-.08,3.91,2,7.37,2.64,11.16,1.11,6.77,0,13.65-1.17,20.34-1.87,9.73-4.61,19.47-9.64,28.08-1.51,2.78-4.24,5-4.56,8.32-1.8,11.36-5.58,28-10.42,32.73-4.21,5.52-22.49,21-9,39.49.14,1.1,18.74,10.1,19.83,10.36,31.46,9.73,49.12.62,79.76,12.68a190.42,190.42,0,0,0,15.11-223.54A190.52,190.52,0,0,0,238,66.18Z" transform="translate(-44.53 -44.61)"/><path class="cls-2" d="M278.8,104.8c2.71-1.88,11.65-15,28.15-4.64,10.09,6.31,9.35,16.4,9.35,16.4s1.84,11.2,13.89,3.09c14.93-10.05,4.07,20.35-7,20.3C315.6,139.92,278.8,104.8,278.8,104.8Z" transform="translate(-44.53 -44.61)"/><circle class="cls-4" cx="210.88" cy="210.88" r="207.38"/></svg>