<svg id="Layer_1" data-name="Layer 1" xmlns="http://www.w3.org/2000/svg" viewBox="0 0 415.95 415.92"><defs><style>.cls-1{fill:#fff;stroke:#000;stroke-miterlimit:10;}</style></defs><title>icon-contact</title><circle class="cls-1" cx="208.48" cy="210.47" r="200.5"/><path d="M244.31,48.36a207.77,207.77,0,0,1,188,97.3c27.94,44.14,37.93,99.05,27.81,150.26A208.2,208.2,0,0,1,313,456c-49.44,14.18-104.12,9.21-150.06-14A208,208,0,0,1,244.31,48.36ZM238,66.18A189.48,189.48,0,0,0,148,99a190.28,190.28,0,0,0-38,279.53c26.15-10.82,52.92-20.09,79.84-28.76,4-1.41,8.16-2.18,12-3.91,1.28-1.6.93-3.87,1.15-5.78.09-9.46.11-19.35-3.9-28.12a120.32,120.32,0,0,1-8-25c-.6-2.63-.55-5.57-2.27-7.79-6.2-8.26-9.44-18.29-11.75-28.24-1.59-7.45-3.11-15.1-2.34-22.76.34-4.84,3.31-9.14,2.93-14.08a223.47,223.47,0,0,0-3.25-33.86c-1.43-8.39-.39-17,1.72-25.18,4.06-15.6,13.26-30,26.32-39.54,15.28-11.31,34.73-15.89,53.53-15.25,14.82-.52,29.89,2.1,43.27,8.62,25.27,11.89,41.05,40.22,39.3,67.87-2,12.68-3.71,25.48-3.71,38.35-.08,3.91,2,7.37,2.64,11.16,1.11,6.77,0,13.65-1.17,20.34-1.87,9.73-4.61,19.47-9.64,28.08-1.51,2.78-4.24,5-4.56,8.32a117.72,117.72,0,0,1-10.42,32.73c-4.11,8.75-6.08,18.59-4.58,28.21a2.22,2.22,0,0,0,1.84,2c31.46,9.73,62.72,20.22,93.36,32.28a190.42,190.42,0,0,0,15.11-223.54A190.52,190.52,0,0,0,238,66.18Z" transform="translate(-48.02 -48.03)"/></svg>